name C:\Users\r0593348\3dpredictsim\Results\Batchsim_tmt_linear\Pog_s1_tmt_aCst_d02_k500_ig24.mot
datacolumns 128
datarows 4
range 1.08078644 1.11321003
endheader
time	pelvis_tilt	pelvis_list	pelvis_rotation	pelvis_tx	pelvis_ty	pelvis_tz	hip_flexion_l	hip_adduction_l	hip_rotation_l	hip_flexion_r	hip_adduction_r	hip_rotation_r	knee_angle_l	knee_angle_r	ankle_angle_l	ankle_angle_r	subtalar_angle_l	subtalar_angle_r	tmt_angle_l	tmt_angle_r	mtp_angle_l	mtp_angle_r	lumbar_extension	lumbar_bending	lumbar_rotation	arm_flex_l	arm_add_l	arm_rot_l	arm_flex_r	arm_add_r	arm_rot_r	elbow_flex_l	elbow_flex_r	pro_sup_l	pro_sup_r	glut_med1_l/activation	glut_med2_l/activation	glut_med3_l/activation	glut_min1_l/activation	glut_min2_l/activation	glut_min3_l/activation	semimem_l/activation	semiten_l/activation	bifemlh_l/activation	bifemsh_l/activation	sar_l/activation	add_long_l/activation	add_brev_l/activation	add_mag1_l/activation	add_mag2_l/activation	add_mag3_l/activation	tfl_l/activation	pect_l/activation	grac_l/activation	glut_max1_l/activation	glut_max2_l/activation	glut_max3_l/activation	iliacus_l/activation	psoas_l/activation	quad_fem_l/activation	gem_l/activation	peri_l/activation	rect_fem_l/activation	vas_med_l/activation	vas_int_l/activation	vas_lat_l/activation	med_gas_l/activation	lat_gas_l/activation	soleus_l/activation	tib_post_l/activation	flex_dig_l/activation	flex_hal_l/activation	tib_ant_l/activation	per_brev_l/activation	per_long_l/activation	per_tert_l/activation	ext_dig_l/activation	ext_hal_l/activation	ercspn_l/activation	intobl_l/activation	extobl_l/activation	glut_med1_r/activation	glut_med2_r/activation	glut_med3_r/activation	glut_min1_r/activation	glut_min2_r/activation	glut_min3_r/activation	semimem_r/activation	semiten_r/activation	bifemlh_r/activation	bifemsh_r/activation	sar_r/activation	add_long_r/activation	add_brev_r/activation	add_mag1_r/activation	add_mag2_r/activation	add_mag3_r/activation	tfl_r/activation	pect_r/activation	grac_r/activation	glut_max1_r/activation	glut_max2_r/activation	glut_max3_r/activation	iliacus_r/activation	psoas_r/activation	quad_fem_r/activation	gem_r/activation	peri_r/activation	rect_fem_r/activation	vas_med_r/activation	vas_int_r/activation	vas_lat_r/activation	med_gas_r/activation	lat_gas_r/activation	soleus_r/activation	tib_post_r/activation	flex_dig_r/activation	flex_hal_r/activation	tib_ant_r/activation	per_brev_r/activation	per_long_r/activation	per_tert_r/activation	ext_dig_r/activation	ext_hal_r/activation	ercspn_r/activation	intobl_r/activation	extobl_r/activation	
          1.08078644	         -2.93014470	         -2.03760491	          5.40111509	          1.35098305	          0.85879541	         -0.00267256	        -18.18660347	         -1.41458793	          7.36262979	         32.12146472	          2.61157124	         -2.63099812	         -5.65340805	        -15.37888542	          1.01819482	          7.08715476	          9.94959017	         -1.94937560	          2.03946553	          0.06084440	         19.84303756	         -0.12964498	         -2.12413214	          0.35865017	         -1.83086951	          8.03127098	        -13.45190526	         18.22682772	         -7.38772325	        -13.56863558	          9.37404412	         33.58199851	         13.64581241	         86.51662706	         86.51662706	          0.33649101	          0.12198336	          0.08217911	          0.37317829	          0.25684134	          0.12967883	          0.05000054	          0.05000006	          0.05000005	          0.08354875	          0.12804832	          0.05000002	          0.05000002	          0.05000003	          0.05000010	          0.05000010	          0.37953069	          0.05000013	          0.05000014	          0.05049784	          0.05000163	          0.05000030	          0.41223375	          0.63287754	          0.05000012	          0.05000105	          0.05900668	          0.22813132	          0.05000020	          0.05000017	          0.05000019	          0.35043465	          0.47132452	          0.32660558	          0.27774202	          0.32320983	          0.40846889	          0.05000001	          0.06951191	          0.16430363	          0.05000009	          0.05000002	          0.05000009	          0.05000000	          0.05000000	          0.05000000	          0.05000034	          0.05000008	          0.05900651	          0.05000005	          0.05000007	          0.05000037	          0.06963546	          0.06963537	          0.23328475	          0.05000044	          0.05000113	          0.11091876	          0.17104622	          0.11474050	          0.12533478	          0.09918164	          0.05900652	          0.05081124	          0.13383167	          0.05900660	          0.05900667	          0.09634586	          0.05049407	          0.05894187	          0.18276523	          0.05000020	          0.05000048	          0.05000007	          0.05633437	          0.06779253	          0.05088463	          0.05000001	          0.05000003	          0.05000000	          0.05900645	          0.05900668	          0.05900669	          0.43083112	          0.34423613	          0.23188638	          0.10839362	          0.48482852	          0.19465961	          0.07287958	          0.11656904	          0.11558150	
          1.09159430	         -2.92804314	         -2.14027515	          5.70396231	          1.36695311	          0.85775255	         -0.00247320	        -18.06003462	         -1.72829820	          7.14773831	         31.61424096	          3.02231016	         -2.43951745	         -7.56712246	        -15.13041633	          0.29628200	          6.68159658	         10.93259306	         -2.41759200	          1.99056786	          0.07908758	         21.01514159	         -0.09746030	         -1.95229723	          0.58371249	         -1.91154015	          7.93473544	        -13.46270790	         18.49679672	         -8.41190572	        -13.56111364	          9.17339066	         34.69722605	         13.50420387	         86.51662706	         86.51662706	          0.28513024	          0.10336426	          0.06963559	          0.31621770	          0.21763800	          0.10988512	          0.05000110	          0.05000009	          0.05000005	          0.07079617	          0.10850352	          0.09322860	          0.10670763	          0.05000063	          0.05000107	          0.05000051	          0.32160051	          0.08333606	          0.05000034	          0.05000046	          0.05000037	          0.05000042	          0.34931186	          0.58060631	          0.05000005	          0.05000015	          0.05000015	          0.19331018	          0.08039463	          0.07210941	          0.06951301	          0.29694554	          0.39938322	          0.28550086	          0.25725250	          0.27393101	          0.34612334	          0.05000000	          0.05900661	          0.15653937	          0.05000005	          0.05000001	          0.05000004	          0.05000001	          0.05000005	          0.05000032	          0.05900653	          0.05900656	          0.05000005	          0.05900658	          0.05900657	          0.05900650	          0.05900657	          0.05900655	          0.21062888	          0.05000154	          0.05000009	          0.13506773	          0.28672282	          0.09722700	          0.12928535	          0.09671692	          0.05000007	          0.06550710	          0.11346976	          0.05000016	          0.05000013	          0.14401797	          0.05900657	          0.05000021	          0.32131108	          0.26819140	          0.13626285	          0.05000082	          0.13306738	          0.13965178	          0.11848463	          0.06060579	          0.05960194	          0.05900657	          0.05000000	          0.05000014	          0.05000015	          0.55742669	          0.35088770	          0.19649227	          0.33350434	          0.55046772	          0.30060444	          0.06175550	          0.09877635	          0.09793954	
          1.10240217	         -2.92083072	         -2.24334810	          5.97906069	          1.38325689	          0.85668917	         -0.00226423	        -17.82759465	         -2.03320181	          6.92217022	         30.99948928	          3.40759217	         -2.19609315	         -9.68117674	        -15.42880462	         -0.54912056	          6.00367492	         11.88555078	         -2.87829611	          1.90033165	          0.04249799	         22.10632499	         -0.07010027	         -1.75457610	          0.81648473	         -1.98347481	          7.73786514	        -13.47727657	         18.67333821	         -9.45993661	        -13.55435384	          9.00176869	         35.80226630	         13.41096249	         86.51662706	         86.51662706	          0.24160898	          0.08758711	          0.05900669	          0.26795137	          0.18441852	          0.09311266	          0.05000126	          0.05000037	          0.05524914	          0.05999010	          0.09194198	          0.19278276	          0.14772389	          0.12856414	          0.05900724	          0.05900704	          0.27251259	          0.07995549	          0.05003309	          0.05005040	          0.05900452	          0.05900673	          0.29599414	          0.52792850	          0.05900667	          0.05900709	          0.05900660	          0.16380401	          0.14611187	          0.15939707	          0.13896875	          0.25162081	          0.33842277	          0.24192301	          0.21798641	          0.23211926	          0.29329237	          0.05000000	          0.05000009	          0.13600548	          0.05000003	          0.05000000	          0.05000004	          0.05998511	          0.06963544	          0.05202436	          0.05000000	          0.05000002	          0.10603115	          0.05000003	          0.05000003	          0.05000003	          0.05000004	          0.05000005	          0.17847924	          0.05000001	          0.05004859	          0.11445154	          0.25378155	          0.36068763	          0.22271247	          0.10609490	          0.05000028	          0.06994752	          0.09615139	          0.05823160	          0.09285189	          0.12203584	          0.05000007	          0.06963549	          0.52235551	          0.22725562	          0.11546419	          0.06963540	          0.18641660	          0.19618850	          0.16504186	          0.05900701	          0.06028656	          0.05000002	          0.05900658	          0.06963578	          0.06963544	          0.50464808	          0.39287753	          0.23398934	          0.28259952	          0.52866949	          0.25472126	          0.05232936	          0.08369948	          0.08299040	
          1.11321003	         -2.90946648	         -2.34739785	          6.22585377	          1.39982078	          0.85560294	         -0.00207013	        -17.51199027	         -2.32728535	          6.68000531	         30.19305647	          3.71326396	         -1.92007351	        -11.93409052	        -15.88193400	         -1.55451960	          5.53030129	         12.76913585	         -3.35845925	          1.77460458	         -0.03661850	         23.04651572	         -0.18904303	         -1.53710020	          1.05511344	         -2.04479456	          7.45082196	        -13.49234070	         18.76072551	        -10.51053888	        -13.55255125	          8.88449356	         36.89642302	         13.34300917	         86.51662706	         86.51662706	          0.35183152	          0.07421813	          0.05000014	          0.39045395	          0.15626957	          0.07890029	          0.05220802	          0.05000007	          0.05000005	          0.05083353	          0.08217860	          0.16335710	          0.12517587	          0.10894059	          0.05000066	          0.05000045	          0.28712095	          0.06988375	          0.05000038	          0.05000055	          0.05000029	          0.05000028	          0.25081471	          0.49481510	          0.05000012	          0.05000055	          0.05000011	          0.13880155	          0.12380988	          0.13506728	          0.11775706	          0.21321429	          0.28676711	          0.20499673	          0.18471374	          0.19668944	          0.24852528	          0.05000001	          0.10366014	          0.17902195	          0.05000005	          0.05000009	          0.05000008	          0.06487923	          0.05900654	          0.05000002	          0.26409843	          0.26933346	          0.33644122	          0.40141150	          0.24585095	          0.21943529	          0.07444012	          0.07859286	          0.15184292	          0.08683023	          0.05900670	          0.09698208	          0.21504525	          0.30563357	          0.18871848	          0.10622894	          0.05000013	          0.05927247	          0.09774426	          0.13530989	          0.12689272	          0.10340877	          0.05900641	          0.05900660	          0.44262502	          0.19256818	          0.26038863	          0.05900650	          0.15796265	          0.16624300	          0.13985047	          0.05000042	          0.05108468	          0.05755274	          0.05000006	          0.05900686	          0.05900660	          0.58065045	          0.41519827	          0.20753406	          0.47844437	          0.60107504	          0.30092455	          0.06966002	          0.10639889	          0.07032304	
